<?xml version="1.0" encoding="UTF-8"?>
<svg width="50px" height="100px" viewBox="0 0 50 100" version="1.1" xmlns="http://www.w3.org/2000/svg" xmlns:xlink="http://www.w3.org/1999/xlink" xmlns:sketch="http://www.bohemiancoding.com/sketch/ns">
    <!-- Generator: Sketch 3.4.2 (15857) - http://www.bohemiancoding.com/sketch -->
    <title>chat_tab_active + chat_tab</title>
    <desc>Created with Sketch.</desc>
    <defs></defs>
    <g id="Page-1" stroke="none" stroke-width="1" fill="none" fill-rule="evenodd" sketch:type="MSPage">
        <g id="chat_tab_active-+-chat_tab" sketch:type="MSLayerGroup">
            <g id="chat_tab_active" transform="translate(0.000000, 50.000000)" sketch:type="MSShapeGroup">
                <g id="Group">
                    <g id="Page-1">
                        <g id="chat2">
                            <g id="Group">
                                <g id="Shape" fill="#F8E81C">
                                    <ellipse id="Oval-1" cx="24.8554504" cy="24.8882257" rx="24.8554504" ry="24.8882257"></ellipse>
                                </g>
                                <path d="M10,17.0094252 C10,15.8996503 10.8978404,15 11.991617,15 L38.008383,15 C39.1083227,15 40,15.886793 40,17.0094252 L40,32.4521132 C40,33.5618881 39.1037748,34.4615385 38.0080689,34.4615385 C38.0080689,34.4615385 39.1527272,34.4615385 34.1792436,34.4615385 C32.8261127,34.4615385 31.4729818,38 30.1198509,38 C28.8192472,38 26.6095526,34.4615385 25.3089489,34.4615385 L11.9969158,34.4615385 C10.8940497,34.4615385 10,33.5747454 10,32.4521132 L10,17.0094252 L10,17.0094252 Z" id="Rectangle-26" fill="#000000"></path>
                                <ellipse id="Oval-68" fill="#F8E81C" cx="18.5236816" cy="24.6513672" rx="1.52368164" ry="1.65136719"></ellipse>
                                <ellipse id="Oval-68" fill="#F8E81C" cx="25.5236816" cy="24.6513672" rx="1.52368164" ry="1.65136719"></ellipse>
                                <ellipse id="Oval-68" fill="#F8E81C" cx="32.5236816" cy="24.6513672" rx="1.52368164" ry="1.65136719"></ellipse>
                            </g>
                        </g>
                    </g>
                </g>
            </g>
            <g id="chat_tab" sketch:type="MSShapeGroup">
                <g id="Group">
                    <g id="Page-1">
                        <g id="ping1">
                            <g id="Group">
                                <g id="Shape" fill="#ECECEC">
                                    <ellipse id="Oval-1" cx="24.8554504" cy="24.8882257" rx="24.8554504" ry="24.8882257"></ellipse>
                                </g>
                                <path d="M10,17.0094252 C10,15.8996503 10.8978404,15 11.991617,15 L38.008383,15 C39.1083227,15 40,15.886793 40,17.0094252 L40,32.4521132 C40,33.5618881 39.1037748,34.4615385 38.0080689,34.4615385 C38.0080689,34.4615385 39.1527272,34.4615385 34.1792436,34.4615385 C32.8261127,34.4615385 31.4729818,38 30.1198509,38 C28.8192472,38 26.6095526,34.4615385 25.3089489,34.4615385 L11.9969158,34.4615385 C10.8940497,34.4615385 10,33.5747454 10,32.4521132 L10,17.0094252 L10,17.0094252 Z" id="Rectangle-26" fill="#FFFFFF"></path>
                                <ellipse id="Oval-68" fill="#EBEBEB" cx="18.5236816" cy="24.6513672" rx="1.52368164" ry="1.65136719"></ellipse>
                                <ellipse id="Oval-68" fill="#EBEBEB" cx="25.5236816" cy="24.6513672" rx="1.52368164" ry="1.65136719"></ellipse>
                                <ellipse id="Oval-68" fill="#EBEBEB" cx="32.5236816" cy="24.6513672" rx="1.52368164" ry="1.65136719"></ellipse>
                            </g>
                        </g>
                    </g>
                </g>
            </g>
        </g>
    </g>
</svg>